<svg xmlns="http://www.w3.org/2000/svg" viewBox="0 0 15.93 18.54"><defs><style>.cls-1{fill:#fff;}</style></defs><title>Phone Icon</title><g id="Layer_2" data-name="Layer 2"><g id="Layer_1-2" data-name="Layer 1"><path class="cls-1" d="M10,18.54c-.34-.08-.68-.14-1-.24a7.89,7.89,0,0,1-2.83-1.67,16.85,16.85,0,0,1-3-3.49A22.65,22.65,0,0,1,.74,8.45,10.58,10.58,0,0,1,0,4.6,5,5,0,0,1,.61,2.15a9.19,9.19,0,0,1,.61-.84L4.15,6.22a1,1,0,0,0-.3,1.28A7.4,7.4,0,0,0,4.4,8.76c.58,1,1.19,2,1.81,3a7.56,7.56,0,0,0,1.32,1.61.86.86,0,0,0,1,.19l2.87,4.77-.72.19Z"/><path class="cls-1" d="M3.55,0A1,1,0,0,1,4.1.49L6.23,4.06A.6.6,0,0,1,6,5l-1.3.77L1.77.89,3.37,0Z"/><path class="cls-1" d="M12,17.84,9.09,13.07c.49-.28,1-.57,1.45-.82a.57.57,0,0,1,.78.28c.38.62.75,1.24,1.12,1.86s.69,1.14,1,1.71a.63.63,0,0,1-.25,1Z"/><path class="cls-1" d="M15.78,10.62l-.89-.21c-.13,0-.08-.12-.07-.2,0-.35.08-.71.09-1.06A7.78,7.78,0,0,0,10,1.83l-.22-.09c.11-.29.22-.58.34-.86,0,0,.12,0,.17,0A7.8,7.8,0,0,1,12,1.77a8.78,8.78,0,0,1,3.78,8.72A1.3,1.3,0,0,0,15.78,10.62Z"/><path class="cls-1" d="M13.18,10c-.3-.07-.58-.13-.86-.21a.18.18,0,0,1-.06-.15A5,5,0,0,0,11.33,6,4.85,4.85,0,0,0,9.15,4.3C9,4.24,9,4.19,9,4.05s.17-.49.25-.74A6.05,6.05,0,0,1,13.18,10Z"/></g></g></svg>